<svg width="24" height="24" viewBox="0 0 24 24" xmlns="http://www.w3.org/2000/svg">
  <rect width="24" height="24" rx="4" fill="#E4E7ED"/>
  <path d="M12.4715 10.5858L12 11.0572L11.5286 10.5858C11.2683 10.3254 11.2683 9.90333 11.5286 9.64298L14.3571 6.81456C14.6174 6.55421 15.0395 6.55421 15.2999 6.81456L17.1855 8.70017C17.4458 8.96052 17.4458 9.38263 17.1855 9.64298L14.3571 12.4714C14.0967 12.7318 13.6746 12.7318 13.4143 12.4714L12.9429 12L13.4143 11.5286L13.8857 12L16.7141 9.17158L14.8285 7.28596L12 10.1144L12.4715 10.5858Z" fill="#575757"/>
  <path d="M11.5289 13.4142L12.0003 12.9428L12.4717 13.4142C12.7321 13.6746 12.7321 14.0967 12.4717 14.357L9.64332 17.1854C9.38297 17.4458 8.96086 17.4458 8.70051 17.1854L6.81489 15.2998C6.55454 15.0395 6.55454 14.6174 6.81489 14.357L9.64332 11.5286C9.90367 11.2682 10.3258 11.2682 10.5861 11.5286L11.0575 12L10.5861 12.4714L10.1147 12L7.2863 14.8284L9.17191 16.714L12.0003 13.8856L11.5289 13.4142Z" fill="#575757"/>
  <path d="M13.4145 10.5858C13.2843 10.4556 13.0733 10.4556 12.9431 10.5858L10.5861 12.9428C10.4559 13.073 10.4559 13.284 10.5861 13.4142C10.7163 13.5444 10.9273 13.5444 11.0575 13.4142L13.4145 11.0572C13.5447 10.927 13.5447 10.716 13.4145 10.5858Z" fill="#575757"/>
</svg>
